<svg height="22" viewBox="0 0 22 22" width="22" xmlns="http://www.w3.org/2000/svg"><g fill="#007ab7" fill-rule="evenodd" transform="translate(1.5 1.5)"><path d="m9.84999466-.25732422c1.37392664 0 2.66978924.25791325 3.88758784.77373974 1.2177986.5314576 2.2794691 1.25048848 3.1850117 2.15709262.9055425.90660414 1.615925 1.96170379 2.1311475 3.16529894.5308353 1.21922626.796253 2.51660805.796253 3.89214537 0 1.39116845-.2654177 2.68855025-.796253 3.89214535-.5152225 1.2192263-1.225605 2.2821415-2.1311475 3.1887456-.9055426.9066042-1.9672131 1.6178195-3.1850117 2.133646-1.2177986.5314576-2.5136612.7971864-3.88758784.7971864-1.37392662 0-2.66978923-.2657288-3.88758782-.7971864-1.2177986-.5158265-2.27946917-1.2270418-3.18501171-2.133646-.90554255-.9066041-1.61592506-1.9695193-2.13114754-3.1887456-.53083529-1.2035951-.79625293-2.5009769-.79625293-3.89214535 0-1.37553732.26541764-2.67291911.79625293-3.89214537.51522248-1.20359515 1.22560499-2.2586948 2.13114754-3.16529894.90554254-.90660414 1.96721311-1.62563502 3.18501171-2.15709262 1.21779859-.51582649 2.5136612-.77373974 3.88758782-.77373974zm0 1c-.609375 0-1.20703125.05859375-1.79296875.17578125s-1.15234375.30078125-1.69921875.55078125c-.546875.21875-1.05859375.48828125-1.53515625.80859375s-.91796875.69140625-1.32421875 1.11328125c-.421875.40625-.79296875.8515625-1.11328125 1.3359375s-.59765625.9921875-.83203125 1.5234375c-.234375.546875-.41015625 1.11328125-.52734375 1.69921875s-.17578125 1.18359375-.17578125 1.79296875c0 .60937502.05859375 1.20703122.17578125 1.79296872s.29296875 1.1601563.52734375 1.7226563c.234375.53125.51171875 1.0351562.83203125 1.5117187s.68359375.9257813 1.08984375 1.3476563c.421875.40625.87109375.7734375 1.34765625 1.1015625s.98828125.6015625 1.53515625.8203125c.546875.234375 1.11328125.4101562 1.69921875.5273437s1.18359375.1757813 1.79296875.1757813c.60937504 0 1.20703124-.0585938 1.79296874-.1757813s1.1523438-.2929687 1.6992188-.5273437c.546875-.21875 1.0585937-.4921875 1.5351562-.8203125s.9179688-.6953125 1.3242188-1.1015625c.421875-.421875.7929687-.8710938 1.1132812-1.3476563s.5976563-.9804687.8320313-1.5117187c.234375-.5625.4101562-1.1367188.5273437-1.7226563s.1757813-1.1835937.1757813-1.79296872c0-.609375-.0585938-1.20703125-.1757813-1.79296875s-.2929687-1.15234375-.5273437-1.69921875c-.234375-.53125-.5117188-1.0390625-.8320313-1.5234375s-.6914062-.9296875-1.1132812-1.3359375c-.40625-.421875-.8476563-.79296875-1.3242188-1.11328125s-.9882812-.58984375-1.5351562-.80859375c-.546875-.25-1.1132813-.43359375-1.6992188-.55078125s-1.1835937-.17578125-1.79296874-.17578125z"/><path d="m9.4744078 4.82080078c.18779343-.078125.37949922-.09765625.5751174-.05859375.1956181.0390625.3638497.12890625.5046948.26953125l4.0140845 4.0078125c.0938967.09375.1643193.203125.2112676.328125.0469484.125.0704226.25.0704226.375 0 .140625-.0234742.26953122-.0704226.38671872-.0469483.1171875-.1173709.2304688-.2112676.3398438l-4.0140845 3.984375c-.1408451.140625-.3090767.2304687-.5046948.2695312-.19561818.0390625-.38732397.0195313-.5751174-.0585937-.18779342-.0625-.34037558-.1796875-.45774647-.3515625-.1173709-.171875-.17605634-.359375-.17605634-.5625v-1.0078125h-3.00469484c-.26604069 0-.49687011-.0976563-.69248826-.2929688s-.29342723-.4257812-.29342723-.6914062v-4.00781252c0-.28125.09780908-.51953125.29342723-.71484375s.42644757-.29296875.69248826-.29296875h3.00469484v-.984375c0-.203125.05868544-.390625.17605634-.5625.11737089-.171875.26995305-.296875.45774647-.375zm.37558686.921875v1.9941349h-4v4.01173022h4v1.9941349l4.00000004-4.01173022z"/></g></svg>