<?xml version="1.0" encoding="UTF-8"?>
<svg width="7px" height="13px" viewBox="0 0 7 13" version="1.1" xmlns="http://www.w3.org/2000/svg" xmlns:xlink="http://www.w3.org/1999/xlink">
    <title></title>
    <g id="Page-1" stroke="none" stroke-width="1" fill="none" fill-rule="evenodd">
        <g id="Filtros" transform="translate(-934.000000, -1305.000000)" fill="#43484C" fill-rule="nonzero">
            <g id="Tabla-data" transform="translate(159.000000, 773.000000)">
                <path d="M775.709961,544.49707 C775.833008,544.491211 775.935547,544.447266 776.017578,544.365234 L776.017578,544.365234 L781.34375,539.039062 C781.496094,538.886719 781.572266,538.708008 781.572266,538.50293 C781.572266,538.297852 781.496094,538.119141 781.34375,537.966797 L781.34375,537.966797 L776,532.640625 C775.917969,532.546875 775.81543,532.5 775.692383,532.5 C775.569336,532.5 775.466797,532.546875 775.384766,532.640625 L775.384766,532.640625 L775.323242,532.705994 C775.270508,532.775208 775.244141,532.855957 775.244141,532.948242 C775.244141,533.071289 775.291016,533.173828 775.384766,533.255859 L775.384766,533.255859 L780.623047,538.494141 L775.384766,543.732422 C775.291016,543.826172 775.244141,543.93457 775.244141,544.057617 C775.244141,544.180664 775.291016,544.289062 775.384766,544.382812 C775.478516,544.464844 775.586914,544.50293 775.709961,544.49707 Z" id=""></path>
            </g>
        </g>
    </g>
</svg>