<svg height="13" viewBox="0 0 8 13" width="8" xmlns="http://www.w3.org/2000/svg"><path d="m614.790039 544.49707c.123047.00586.231445-.032226.325195-.114258.09375-.082031.140625-.1875.140625-.316406s-.046875-.234375-.140625-.316406l-5.238281-5.255859 5.238281-5.238282c.09375-.082031.140625-.18457.140625-.307617s-.046875-.225586-.140625-.307617l-.065368-.061523c-.069214-.052735-.149964-.079102-.242249-.079102-.123047 0-.225586.046875-.307617.140625l-5.34375 5.326172c-.152344.152344-.228516.331055-.228516.536133s.076172.383789.228516.536132l5.326172 5.326172c.082031.082032.18457.125977.307617.131836z" fill="#b4b4b4" transform="translate(-608 -532)"/></svg>