<?xml version="1.0" encoding="UTF-8"?>
<svg width="12px" height="6px" viewBox="0 0 12 6" version="1.1" xmlns="http://www.w3.org/2000/svg" xmlns:xlink="http://www.w3.org/1999/xlink">
    <title></title>
    <g id="Page-1" stroke="none" stroke-width="1" fill="none" fill-rule="evenodd">
        <g id="Filtros-nómina" transform="translate(-420.000000, -526.000000)" fill="#EC7000" fill-rule="nonzero">
            <path d="M426.007813,532 C426.190104,532 426.34375,531.9375 426.46875,531.8125 L426.46875,531.8125 L431.21875,527.0625 C431.291667,526.989583 431.330729,526.898438 431.335938,526.789062 C431.341146,526.679688 431.307292,526.588542 431.234375,526.515625 C431.151042,526.432292 431.054688,526.390625 430.945313,526.390625 C430.835938,526.390625 430.739583,526.427083 430.65625,526.5 L430.65625,526.5 L426,531.15625 L421.34375,526.5 C421.270833,526.427083 421.179688,526.390625 421.070313,526.390625 C420.960938,526.390625 420.864583,526.427083 420.78125,526.5 L420.78125,526.5 L420.733398,526.564453 C420.692383,526.630859 420.671875,526.703125 420.671875,526.78125 C420.671875,526.885417 420.708333,526.979167 420.78125,527.0625 L420.78125,527.0625 L425.53125,531.8125 C425.666667,531.9375 425.825521,532 426.007813,532 Z" id=""></path>
        </g>
    </g>
</svg>