<?xml version="1.0" encoding="UTF-8"?>
<svg width="15px" height="7px" viewBox="0 0 15 7" version="1.1" xmlns="http://www.w3.org/2000/svg" xmlns:xlink="http://www.w3.org/1999/xlink">
    <title></title>
    <g id="Page-1" stroke="none" stroke-width="1" fill="none" fill-rule="evenodd">
        <g id="Consulta-de-nomina" transform="translate(-1006.000000, -290.000000)" fill="#FFFFFF" fill-rule="nonzero">
            <g id="Btn-Buscar" transform="translate(885.000000, 263.000000)">
                <path d="M128.55421,34 C128.782075,34 128.974132,33.921875 129.130382,33.765625 L129.130382,33.765625 L135.067882,27.828125 C135.159028,27.7369792 135.207856,27.6230469 135.214366,27.4863281 C135.220877,27.3496094 135.178559,27.2356771 135.087413,27.1445312 C134.983247,27.0403646 134.862804,26.9882812 134.726085,26.9882812 C134.589366,26.9882812 134.468924,27.0338542 134.364757,27.125 L134.364757,27.125 L128.544445,32.9453125 L122.724132,27.125 C122.632986,27.0338542 122.519054,26.9882812 122.382335,26.9882812 C122.245616,26.9882812 122.125174,27.0338542 122.021007,27.125 L122.021007,27.125 L121.961193,27.2055664 C121.909923,27.2885742 121.884288,27.3789062 121.884288,27.4765625 C121.884288,27.6067708 121.929861,27.7239583 122.021007,27.828125 L122.021007,27.828125 L127.958507,33.765625 C128.127778,33.921875 128.326346,34 128.55421,34 Z" id=""></path>
            </g>
        </g>
    </g>
</svg>