<?xml version="1.0" encoding="UTF-8"?>
<svg width="206px" height="111px" viewBox="0 0 206 111" version="1.1" xmlns="http://www.w3.org/2000/svg" xmlns:xlink="http://www.w3.org/1999/xlink">
    <title>proximo</title>
    <g id="Page-1" stroke="none" stroke-width="1" fill="none" fill-rule="evenodd">
        <g id="proximo" transform="translate(103.000000, 55.500000) rotate(90.000000) translate(-103.000000, -55.500000) translate(48.000000, -47.000000)" fill="#FFFFFF" fill-rule="nonzero">
            <g id="Path-2">
                <path d="M107.6792,96.8745109 L13.4724012,2.31820991 C10.3858253,-0.777999353 5.38858777,-0.772794294 2.30718336,2.33422547 C-0.771834212,5.44084485 -0.763878094,10.473336 2.3230956,13.5719476 L90.922423,102.500379 L2.31991315,191.42841 C-0.766662735,194.527422 -0.774618853,199.55671 2.30400092,202.663729 C3.84868118,204.221243 5.87231973,205 7.89595829,205 C9.91442536,205 11.9301078,204.226448 13.4720034,202.679745 L107.6792,108.125846 C109.165801,106.637199 110,104.61123 110,102.500379 C110,100.389527 109.163414,98.3659605 107.6792,96.8745109 Z" id="Path"></path>
            </g>
        </g>
    </g>
</svg>