<?xml version="1.0" encoding="UTF-8"?>
<svg width="14px" height="18px" viewBox="0 0 14 18" version="1.1" xmlns="http://www.w3.org/2000/svg" xmlns:xlink="http://www.w3.org/1999/xlink">
    <title></title>
    <g id="Page-1" stroke="none" stroke-width="1" fill="none" fill-rule="evenodd">
        <g id="Tootlips-informe-carga" transform="translate(-1007.000000, -635.000000)" fill="#007BBC" fill-rule="nonzero">
            <g id="Tabla-data" transform="translate(159.000000, 521.000000)">
                <path d="M860.884288,131.160156 C861.105643,131.160156 861.2977,131.078776 861.46046,130.916016 C861.623221,130.753255 861.704601,130.561198 861.704601,130.339844 L861.704601,130.339844 L861.704601,115.339844 C861.704601,115.105469 861.623221,114.906901 861.46046,114.744141 C861.2977,114.58138 861.105643,114.5 860.884288,114.5 L860.884288,114.5 L851.704601,114.5 C851.574393,114.5 851.450695,114.529297 851.333507,114.587891 C851.21632,114.646484 851.118663,114.721354 851.040538,114.8125 L851.040538,114.8125 L848.56007,118.054688 C848.494965,118.119792 848.449393,118.197917 848.423351,118.289062 C848.397309,118.380208 848.384288,118.471354 848.384288,118.5625 L848.384288,118.5625 L848.384288,130.339844 C848.384288,130.561198 848.465669,130.753255 848.628429,130.916016 C848.791189,131.078776 848.983247,131.160156 849.204601,131.160156 L849.204601,131.160156 L860.884288,131.160156 Z M860.884288,130.339844 L849.204601,130.339844 L849.204601,119.5 L851.704601,119.5 C851.938976,119.5 852.137544,119.41862 852.300304,119.255859 C852.463064,119.093099 852.544445,118.894531 852.544445,118.660156 L852.544445,118.660156 L852.544445,115.339844 L860.884288,115.339844 L860.884288,130.339844 Z M851.704601,118.660156 L849.204601,118.660156 L851.704601,115.339844 L851.704601,118.660156 Z M858.794445,123.660156 C858.911632,123.660156 859.009288,123.621094 859.087413,123.542969 C859.146007,123.484375 859.182628,123.414795 859.197277,123.334229 L859.204601,123.25 C859.204601,123.132812 859.165538,123.035156 859.087413,122.957031 C859.009288,122.878906 858.911632,122.839844 858.794445,122.839844 L851.294445,122.839844 C851.177257,122.839844 851.079601,122.878906 851.001476,122.957031 C850.942882,123.015625 850.906261,123.085205 850.891613,123.165771 L850.884288,123.25 C850.884288,123.367188 850.923351,123.464844 851.001476,123.542969 C851.079601,123.621094 851.177257,123.660156 851.294445,123.660156 L858.794445,123.660156 Z M858.794445,126.160156 C858.911632,126.160156 859.009288,126.121094 859.087413,126.042969 C859.146007,125.984375 859.182628,125.914795 859.197277,125.834229 L859.204601,125.75 C859.204601,125.632812 859.165538,125.535156 859.087413,125.457031 C859.009288,125.378906 858.911632,125.339844 858.794445,125.339844 L851.294445,125.339844 C851.177257,125.339844 851.079601,125.378906 851.001476,125.457031 C850.942882,125.515625 850.906261,125.585205 850.891613,125.665771 L850.884288,125.75 C850.884288,125.867188 850.923351,125.964844 851.001476,126.042969 C851.079601,126.121094 851.177257,126.160156 851.294445,126.160156 L858.794445,126.160156 Z M858.794445,128.660156 C858.911632,128.660156 859.009288,128.621094 859.087413,128.542969 C859.165538,128.464844 859.204601,128.367188 859.204601,128.25 L859.204601,128.25 L859.197277,128.165771 C859.182628,128.085205 859.146007,128.015625 859.087413,127.957031 C859.009288,127.878906 858.911632,127.839844 858.794445,127.839844 L858.794445,127.839844 L854.634288,127.839844 C854.517101,127.839844 854.416189,127.878906 854.331554,127.957031 C854.246919,128.035156 854.204601,128.132812 854.204601,128.25 L854.204601,128.25 L854.212535,128.334229 C854.228405,128.414795 854.268077,128.484375 854.331554,128.542969 C854.416189,128.621094 854.517101,128.660156 854.634288,128.660156 L854.634288,128.660156 L858.794445,128.660156 Z" id=""></path>
            </g>
        </g>
    </g>
</svg>