<svg height="21" viewBox="0 0 17 21" width="17" xmlns="http://www.w3.org/2000/svg"><g fill="#43484c" fill-rule="evenodd"><path d="m15.5427632 0 .1345825.00843249c.2192447.02810829.4131919.12648733.5818417.2951371.2023797.20237973.3035696.44118781.3035696.71642424v18.65131577l-.0084325.1420031c-.0281083.2304881-.1264873.430057-.2951371.5987067-.2023797.2023798-.4411878.3035696-.7164242.3035696h-14.52276937l-.13458252-.0084325c-.2192447-.0281083-.41319194-.1264873-.58184172-.2951371-.20237973-.2023797-.30356959-.449283-.30356959-.7407098v-18.65131577l.00843249-.13458252c.02810829-.2192447.12648733-.41319194.2951371-.58184172.20237973-.20237973.44118781-.30356959.71642424-.30356959zm0 1.01999383h-14.52276937v18.65131577h14.52276937z"/><path d="m6.60567434 10.3456517 1.52999075-2.64712682c.04857114-.08095189.08499949-.149761.10928505-.20642733.02428557-.05666632.04452354-.10118986.06071392-.13357062.03238076.06476152.06071392.12547543.08499949.18214176.02428557.05666632.05261873.10928505.08499948.15785619l1.48141962 2.64712682h1.43284845l-2.28284331-3.64283509 2.23427221-3.59426398h-1.35999178l-1.35999178 2.42855675c-.03238076.04857113-.06880911.11738024-.10928505.20642732-.04047595.08904708-.08499949.18214175-.13357063.27928402h-.02428556c-.03238076-.08095189-.06476152-.16190378-.09714227-.24285567-.03238076-.08095189-.0728567-.16190378-.12142784-.24285567l-1.31142064-2.42855675h-1.48141961l2.18570106 3.59426398-2.3799856 3.64283509z"/><path d="m12.9442074 14.4984838c.1457134 0 .2671413-.0526188.3642836-.1578562.0971422-.1052375.1457134-.2226177.1457134-.3521408 0-.1457134-.0485712-.2711888-.1457134-.3764263-.0971423-.1052374-.2185702-.1578561-.3642836-.1578561h-9.32565785c-.14571341 0-.26714124.0526187-.36428351.1578561-.09714227.1052375-.14571341.2307129-.14571341.3764263 0 .1295231.04857114.2469033.14571341.3521408.09714227.1052374.2185701.1578562.36428351.1578562z"/><path d="m12.9442074 17.6070364c.1457134 0 .2671413-.0526187.3642836-.1578562.0971422-.1052375.1457134-.2226177.1457134-.3521407 0-.1457134-.0485712-.2711889-.1457134-.3764263-.0971423-.1052375-.2185702-.1578562-.3642836-.1578562h-9.32565785c-.14571341 0-.26714124.0526187-.36428351.1578562-.09714227.1052374-.14571341.2307129-.14571341.3764263 0 .129523.04857114.2469032.14571341.3521407s.2185701.1578562.36428351.1578562z"/></g></svg>