<svg height="15" viewBox="0 0 21 15" width="21" xmlns="http://www.w3.org/2000/svg"><g fill="#43484c" fill-rule="evenodd"><path d="m20.0407733.82446344c.4323631 0 .7268172.20127246.8833625.60381737.1565452.40254492.0708181.75290809-.2571815 1.05108951l-7.6259899 6.68671837c-.1789088.16399978-.3913631.24599967-.6373627.24599967-.2459997 0-.458454-.08199989-.6373628-.24599967l-7.62598987-6.68671837c-.32799956-.29818142-.41372672-.64854459-.25718147-1.05108951.15654524-.40254491.45099939-.60381737.88336245-.60381737zm.0894544.93927147h-15.45325211l7.71544431 6.53017312z"/><path d="m20.0407733 14.1755366c.2534542 0 .473363-.0931817.6597264-.2795451s.2795451-.4137267.2795451-.68209v-9.52689642l-.9392715.93927148v8.58762494h-19.54579214c-.13418164 0-.24972694.0447272-.3466359.1341816s-.14536345.2012725-.14536345.3354541c-.01490907.1341817.02609088.249727.12299984.3466359.09690896.096909.21245426.1453635.3466359.1453635z"/><path d="m3.80479493 5.58791164v-.96163508h-.93927147v.96163508z"/><path d="m4.29679428 8.45045328c.11927257 0 .22736333-.04845448.32427229-.14536344.09690896-.09690897.14536344-.20499973.14536344-.3242723 0-.13418164-.04845448-.24972694-.14536344-.3466359s-.20499972-.14536344-.32427229-.14536344h-1.92327017c-.11927257 0-.22736333.04845448-.32427229.14536344-.09690897.09690896-.14536345.21245426-.14536345.3466359 0 .11927257.04845448.22736333.14536345.3242723.09690896.09690896.20499972.14536344.32427229.14536344z"/><path d="m5.23606575 11.3129949c.13418164 0 .24972694-.0484545.3466359-.1453634.09690897-.096909.14536345-.2049997.14536345-.3242723 0-.1341817-.04845448-.249727-.14536345-.3466359-.09690896-.096909-.21245426-.1453635-.3466359-.1453635h-3.80181311c-.13418164 0-.24972695.0484545-.34663591.1453635-.09690896.0969089-.14536344.2124542-.14536344.3466359 0 .1192726.04845448.2273633.14536344.3242723.09690896.0969089.21245427.1453634.34663591.1453634z"/></g></svg>