<svg height="21" viewBox="0 0 17 21" width="17" xmlns="http://www.w3.org/2000/svg"><g fill="#007ab7" fill-rule="evenodd"><path d="m15.7561547 0 .1364303.00854826c.2222548.0284942.4188648.12822392.58983.29918914s.2706949.37327406.2991891.60692653l.0085483.14395272v18.90738565l-.0085483.1364303c-.0284942.2222548-.1282239.4188648-.2991891.58983s-.3675752.2706949-.58983.2991891l-.1364303.0085483h-14.72215704l-.13643025-.0085483c-.22225479-.0284942-.41886479-.1282239-.58983001-.2991891s-.27069494-.3675752-.29918914-.58983l-.00854826-.1364303v-14.84525201l.00547089-.11488863c.00729451-.07659241.02188355-.15318483.04376709-.22977725.02188355-.07659242.05470887-.14589032.09847597-.20789371l.07385698-.08753419 3.12661195-4.08675264.07847304-.08231975c.0830891-.07847304.18002638-.14540592.29081184-.20079866.11078546-.05539273.22618699-.09001319.34620457-.10386137l.12155627-.00692409zm0 1.05861665h-10.51230945v4.1852286l-.00854826.14395272c-.0284942.23365247-.12822391.43596131-.29918914.60692653-.17096522.17096522-.37327406.27069493-.60692653.29918914l-.14395272.00854826h-3.15123094v13.6635404h14.72215704zm-11.5709261 0-3.15123094 4.1852286h3.15123094z"/><path d="m13.1219226 11.5463072c.147714 0 .2708089-.049238.3692849-.147714s.147714-.2215709.147714-.3692849c0-.1477139-.049238-.2708089-.147714-.3692849-.098476-.0984759-.2215709-.1477139-.3692849-.1477139h-9.45369282c-.14771395 0-.27080891.049238-.36928488.1477139-.09847597.098476-.14771395.221571-.14771395.3692849 0 .147714.04923798.2708089.14771395.3692849s.22157093.147714.36928488.147714z"/><path d="m13.1219226 14.6975381c.147714 0 .2708089-.049238.3692849-.1477139.098476-.098476.147714-.221571.147714-.3692849 0-.147714-.049238-.2708089-.147714-.3692849s-.2215709-.147714-.3692849-.147714h-9.45369282c-.14771395 0-.27080891.049238-.36928488.147714s-.14771395.2215709-.14771395.3692849c0 .1477139.04923798.2708089.14771395.3692849.09847597.0984759.22157093.1477139.36928488.1477139z"/><path d="m13.1219226 17.8487691c.147714 0 .2708089-.049238.3692849-.147714s.147714-.2215709.147714-.3692849c0-.1477139-.049238-.2708089-.147714-.3692849-.098476-.0984759-.2215709-.1477139-.3692849-.1477139h-5.24384523c-.14771395 0-.27491207.049238-.38159437.1477139-.1066823.098476-.16002345.221571-.16002345.3692849 0 .147714.05334115.2708089.16002345.3692849s.23388042.147714.38159437.147714z"/></g></svg>