<svg height="21" viewBox="0 0 17 21" width="17" xmlns="http://www.w3.org/2000/svg"><g fill="#43484c" fill-rule="evenodd"><path d="m15.5427632 0c.2752364 0 .5140445.10118986.7164242.30356959s.3035696.449283.3035696.74070981v18.6513158c0 .2752364-.1011899.5140445-.3035696.7164242-.2023797.2023798-.4411878.3035696-.7164242.3035696h-14.52276937c-.27523643 0-.51404451-.1011898-.71642424-.3035696-.20237973-.2023797-.30356959-.4411878-.30356959-.7164242v-18.6513158c0-.29142681.10118986-.53833008.30356959-.74070981s.44118781-.30356959.71642424-.30356959zm0 1.0442794h-14.52276937v18.6513158h14.52276937z"/><path d="m12.3127827 9.32565789v-2.98712479h.8499948v-.48571135h-.8499948v-.19428454c0-.25904605.0445235-.48975894.1335706-.69213867s.2711888-.30356959.5464253-.30356959c.0971422 0 .1780941.00809519.2428557.02428556.0647615.01619038.1214278.03238076.1699989.04857114l.0728567-.48571135c-.0647615-.03238076-.1416658-.05666632-.2307129-.0728567-.089047-.01619038-.1902369-.02428557-.3035696-.02428557-.1457134 0-.2954744.02428557-.449283.0728567-.1538085.04857114-.2873792.12952303-.4007118.24285568-.1457134.1457134-.2509509.32380756-.3157124.53428248s-.0971423.43714022-.0971423.67999589v.16999897h-.4614257v.48571135h.4857113v2.98712479z"/><path d="m10.272795 4.22568873v4.20140317c0 .1457134.0040476.30356959.0121428.47356856.0080952.16999898.0121428.31166479.0121428.42499743h-.55856806l-.02428557-.60713918h-.02428556c-.09714227.19428454-.24690327.35618832-.449283.48571135-.20237973.12952302-.44118781.19428454-.71642424.19428454-.42094984 0-.77713816-.16190379-1.06856497-.48571135-.29142681-.32380757-.43714021-.75285259-.43714021-1.28713508 0-.56666324.15380859-1.01594623.46142578-1.34784899.30761719-.33190275.6719007-.49785413 1.09285053-.49785413.27523644 0 .50190173.05261873.67999589.15785619s.299522.2226177.36428351.35214073h.02428557v-2.06427324zm-1.57856186 2.03998767c-.32380756 0-.57475843.12952302-.75285259.38856908-.17809416.25904605-.26714124.57475843-.26714124.94713713 0 .35618832.08499949.65975791.25499846.91070878.16999897.25095086.42499743.37642629.76499537.37642629.21047492 0 .40071186-.06476151.57071084-.19428454.16999897-.12952302.28737921-.31571238.35214072-.55856805.01619038-.03238076.02428557-.0728567.02428557-.12142784v-.87428042c0-.04857114-.00809519-.09714227-.02428557-.14571341-.04857113-.19428454-.15380859-.36428351-.31571237-.50999692-.16190379-.1457134-.36428351-.2185701-.60713919-.2185701z"/><path d="m4.95425576 5.77996505c.42094983 0 .77309056.16190378 1.05642218.48571135.28333162.32380756.42499743.7447574.42499743 1.2628495 0 .63142476-.16595138 1.10094573-.49785413 1.40856292-.33190276.30761718-.70023386.46142578-1.10499332.46142578-.2266653 0-.43309262-.04857114-.61928197-.14571341s-.33595035-.22666529-.449283-.38856908v1.86998869h-.63142475v-3.73997738c0-.2266653-.0040476-.43309262-.01214278-.61928197-.00809519-.18618935-.01214279-.36023592-.01214279-.5221397h.55856805l.02428557.58285362h.02428557c.12952302-.21047492.2954744-.3723787.49785413-.48571135s.449283-.16999897.74070981-.16999897zm-.19428454.50999692c-.2266653 0-.42904503.0688091-.60713919.20642732-.17809416.13761821-.299522.31975997-.36428351.54642527 0 .04857113-.00404759.09309467-.01214278.13357062l-.00910709.06374961-.0030357.06982101h-.02428557v.60713918c0 .04857114.0040476.09309468.01214279.13357062.00809519.04047595.02023797.0769043.03642835.10928506.04857113.22666529.16190378.40880705.33999794.54642527.17809416.13761821.38047389.20642732.60713919.20642732.32380757 0 .57880602-.12547543.76499537-.3764263.18618935-.25095086.27928403-.57880602.27928403-.98356548 0-.33999794-.08904708-.63547235-.26714124-.88642321s-.42904503-.37642629-.75285259-.37642629z"/><path d="m12.9442074 14.4984838c.1457134 0 .2671413-.0485712.3642836-.1457134.0971422-.0971423.1457134-.2185702.1457134-.3642836s-.0485712-.2671412-.1457134-.3642835c-.0971423-.0971422-.2185702-.1457134-.3642836-.1457134h-9.32565785c-.14571341 0-.26714124.0485712-.36428351.1457134-.09714227.0971423-.14571341.2185701-.14571341.3642835s.04857114.2671413.14571341.3642836c.09714227.0971422.2185701.1457134.36428351.1457134z"/><path d="m12.9442074 17.6070364c.1457134 0 .2671413-.0485711.3642836-.1457134.0971422-.0971423.1457134-.2185701.1457134-.3642835s-.0485712-.2671413-.1457134-.3642835c-.0971423-.0971423-.2185702-.1457134-.3642836-.1457134h-9.32565785c-.14571341 0-.26714124.0485711-.36428351.1457134-.09714227.0971422-.14571341.2185701-.14571341.3642835s.04857114.2671412.14571341.3642835.2185701.1457134.36428351.1457134z"/></g></svg>