<svg height="21" viewBox="0 0 19 21" width="19" xmlns="http://www.w3.org/2000/svg"><g fill="#007ab7" fill-rule="evenodd"><path d="m3.29589844 15.9301758c.1171875 0 .22338867-.0439453.31860351-.131836.09521485-.0878906.14282227-.1977539.14282227-.3295898v-2.8125c0-.1318359-.04760742-.2416992-.14282227-.3295898-.09521484-.0878907-.20141601-.131836-.31860351-.131836-.13183594 0-.24536133.0439453-.34057617.131836-.09521485.0878906-.14282227.1977539-.14282227.3295898v1.2963867c-.29296875-.5419922-.52001953-1.1206055-.68115234-1.7358398-.16113282-.6152344-.24169922-1.2524414-.24169922-1.9116211 0-.79101564.1171875-1.54541018.3515625-2.26318361.234375-.71777344.56030273-1.38061524.9777832-1.98852539.41748047-.60791016.91186524-1.14624024 1.4831543-1.61499024.5859375-.45410156 1.22314453-.8203125 1.91162109-1.09863281.13183594.64453125.45410156 1.18652344.96679688 1.62597656.51269531.43945313 1.11328125.65917969 1.80175781.65917969.77636718 0 1.43920898-.2746582 1.98852538-.82397461s.8239746-1.2121582.8239746-1.98852539-.2746582-1.43920898-.8239746-1.98852539-1.2121582-.82397461-1.98852538-.82397461c-.703125 0-1.31469727.22338867-1.8347168.67016602-.52001953.44677734-.83129883 1.00708007-.93383789 1.6809082-.8203125.27832031-1.58203125.68115234-2.28515625 1.20849609-.68847656.51269531-1.28540039 1.11694336-1.79077148 1.81274414-.5053711.69580078-.8972168 1.46118164-1.17553711 2.29614258s-.41748047 1.71386719-.41748047 2.63671877c0 .8789062.12451172 1.7138672.37353516 2.5048828.24902343.7910156.60058593 1.5234375 1.0546875 2.1972656h-1.88964844c-.13183594 0-.24536133.0439453-.34057617.131836-.09521485.0878906-.14282227.1977539-.14282227.3295898s.04760742.2416992.14282227.3295898c.09521484.0878907.20874023.131836.34057617.131836z"/><path d="m18.28125 4.68017578.0954437.00892639c.0920105.01785279.1737213.06248474.2451325.13389588.0952148.09521484.1428222.20874023.1428222.34057617 0 .1171875-.0476074.22338867-.1428222.31860351-.0952149.09521485-.2087403.14282227-.3405762.14282227h-1.8896484l.188337.29237085c.3641183.59191646.6529018 1.22688138.8663505 1.90489477.2490234.79101563.3735351 1.61865235.3735351 2.48291018 0 .9228515-.1391601 1.8017578-.4174804 2.6367187-.2783204.8496094-.6701661 1.6186524-1.1755372 2.3071289-.5053711.6884766-1.1022949 1.2963868-1.7907714 1.8237305-.703125.5273438-1.4648438.9301758-2.2851563 1.2084961-.1025391.6591797-.4138184 1.2158203-.9338379 1.6699219-.5200195.4541015-1.1315918.6811523-1.83471678.6811523-.77636719 0-1.43920899-.2746582-1.98852539-.8239746-.54931641-.5493164-.82397461-1.2121582-.82397461-1.9885254s.2746582-1.439209.82397461-1.9885254c.5493164-.5493164 1.2121582-.8239746 1.98852539-.8239746.68847658 0 1.28906248.2160645 1.80175778.6481934s.834961.9777832.9667969 1.6369629c.6884766-.2783203 1.3256836-.6518555 1.9116211-1.1206055.5712891-.4541016 1.0656738-.9851074 1.4831543-1.5930176.4174805-.6079101.7434082-1.2707519.9777832-1.9885254.234375-.7324218.3515625-1.4941406.3515625-2.2851562 0-.65917971-.0805664-1.29272463-.2416992-1.90063478-.1611328-.60791016-.3881836-1.18286133-.6811524-1.72485352v1.29638672l-.0089264.08583069c-.0178527.08377075-.0624847.16136169-.1338958.23277282-.0952149.09521485-.2087403.14282227-.3405762.14282227-.1171875 0-.2233887-.04760742-.3186035-.14282227-.0952149-.09521484-.1428223-.20141601-.1428223-.31860351v-2.8125l.0089264-.09544373c.0178528-.09201049.0624848-.17372131.1338959-.24513244.0952148-.09521485.201416-.14282227.3186035-.14282227zm-8.89892578 11.25000002c-.51269531 0-.95214844.1831054-1.31835938.5493164-.36621093.3662109-.5493164.8129883-.5493164 1.340332 0 .5126953.18310547.9521485.5493164 1.3183594.36621094.3662109.80566407.5493164 1.31835938.5493164s.95214848-.1831055 1.31835938-.5493164.5493164-.8056641.5493164-1.3183594c0-.5273437-.1831055-.9741211-.5493164-1.340332-.3662109-.366211-.80566407-.5493164-1.31835938-.5493164z"/></g></svg>