<?xml version="1.0" encoding="UTF-8"?>
<svg width="20px" height="20px" viewBox="0 0 20 20" version="1.1" xmlns="http://www.w3.org/2000/svg" xmlns:xlink="http://www.w3.org/1999/xlink">
    <title></title>
    <g id="Page-1" stroke="none" stroke-width="1" fill="none" fill-rule="evenodd">
        <g id="Filtros-nómina" transform="translate(-1022.000000, -611.000000)" fill="#B4B4B4" fill-rule="nonzero">
            <g id="Tabla" transform="translate(150.000000, 601.000000)">
                <path d="M879.47279,25.1920108 C880.476045,25.1920108 881.411917,25.0048363 882.280407,24.6304874 C883.148896,24.2411644 883.908825,23.7245629 884.560192,23.0806827 C885.211559,22.4368025 885.724417,21.6731306 886.098766,20.789667 C886.473115,19.9211775 886.66029,18.992792 886.66029,18.0045108 C886.66029,17.0012556 886.473115,16.0653832 886.098766,15.1968936 C885.724417,14.328404 885.211559,13.5684756 884.560192,12.9171084 C883.908825,12.2657413 883.148896,11.7528832 882.280407,11.3785342 C881.411917,11.0041853 880.476045,10.8170108 879.47279,10.8170108 C878.484508,10.8170108 877.556123,11.0041853 876.687633,11.3785342 C875.80417,11.7528832 875.040498,12.2657413 874.396618,12.9171084 C873.752738,13.5684756 873.236136,14.328404 872.846813,15.1968936 C872.472464,16.0653832 872.28529,17.0012556 872.28529,18.0045108 C872.28529,18.992792 872.472464,19.9211775 872.846813,20.789667 C873.236136,21.6731306 873.752738,22.4368025 874.396618,23.0806827 C875.040498,23.7245629 875.80417,24.2411644 876.687633,24.6304874 C877.556123,25.0048363 878.484508,25.1920108 879.47279,25.1920108 Z M879.47279,24.2261905 C879.053519,24.2261905 878.641735,24.1850121 878.237438,24.1026553 C877.833141,24.0202985 877.436331,23.8967634 877.047008,23.7320499 C876.687633,23.5823103 876.339489,23.3951358 876.002575,23.1705264 C875.665661,22.945917 875.354951,22.6913597 875.070446,22.4068545 C874.785941,22.1223493 874.531383,21.8116397 874.306774,21.4747256 C874.082165,21.1378116 873.89499,20.789667 873.745251,20.430292 C873.580537,20.0409691 873.457002,19.6441592 873.374645,19.2398624 C873.292288,18.8355655 873.25111,18.4237816 873.25111,18.0045108 C873.25111,17.58524 873.292288,17.1697126 873.374645,16.7579288 C873.457002,16.3461449 873.580537,15.9530785 873.745251,15.5787295 C873.89499,15.2043806 874.082165,14.8524926 874.306774,14.5230655 C874.531383,14.1936384 874.785941,13.8866722 875.070446,13.602167 C875.354951,13.3026879 875.665661,13.0443871 876.002575,12.8272647 C876.339489,12.6101423 876.687633,12.4192243 877.047008,12.2545108 C877.436331,12.0897972 877.833141,11.9662621 878.237438,11.8839053 C878.641735,11.8015485 879.053519,11.7603702 879.47279,11.7603702 C879.892061,11.7603702 880.307588,11.8015485 880.719372,11.8839053 C881.131156,11.9662621 881.524222,12.0897972 881.898571,12.2545108 C882.27292,12.4192243 882.624808,12.6101423 882.954235,12.8272647 C883.283662,13.0443871 883.590628,13.3026879 883.875133,13.602167 C884.174613,13.8866722 884.432913,14.1936384 884.650036,14.5230655 C884.867158,14.8524926 885.058076,15.2043806 885.22279,15.5787295 C885.387503,15.9530785 885.511038,16.3461449 885.593395,16.7579288 C885.675752,17.1697126 885.71693,17.58524 885.71693,18.0045108 C885.71693,18.4237816 885.675752,18.8355655 885.593395,19.2398624 C885.511038,19.6441592 885.387503,20.0409691 885.22279,20.430292 C885.058076,20.789667 884.867158,21.1378116 884.650036,21.4747256 C884.432913,21.8116397 884.174613,22.1223493 883.875133,22.4068545 C883.590628,22.6913597 883.283662,22.945917 882.954235,23.1705264 C882.624808,23.3951358 882.27292,23.5823103 881.898571,23.7320499 C881.524222,23.8967634 881.131156,24.0202985 880.719372,24.1026553 C880.307588,24.1850121 879.892061,24.2261905 879.47279,24.2261905 Z M889.06361,29.9761905 C889.333141,29.9761905 889.557751,29.8863467 889.737438,29.7066592 L889.737438,29.7066592 L891.174938,28.2691592 C891.3696,28.0744978 891.46693,27.8461449 891.46693,27.5841006 C891.46693,27.3220564 891.3696,27.0937035 891.174938,26.899042 L891.174938,26.899042 L886.503063,22.1373233 L886.503063,22.1373233 L886.233532,22.5416202 C886.143688,22.6763858 886.046357,22.8111514 885.94154,22.945917 L885.94154,22.945917 L890.50111,27.5728702 L889.06361,29.0103702 L884.436657,24.4732608 C884.301891,24.5631045 884.167126,24.6529483 884.03236,24.742792 L883.628063,25.0123233 L888.389782,29.7066592 C888.569469,29.8863467 888.794079,29.9761905 889.06361,29.9761905 Z" id=""></path>
            </g>
        </g>
    </g>
</svg>